<svg xmlns="http://www.w3.org/2000/svg" width="840.299" height="216.002" viewBox="0 0 840.299 216.002"><path d="M136.654-80.539q2.383,4.527,3.455,6.791,18.943,36.7,26.926,48.252t14.773,11.914q10.723.6,16.68-16.441,3.932,2.264,3.932,4.885,0,7.506-10.067,18.705t-16.858,11.2q-9.889,0-25.734-21.684T118.307-73.629q-6.553.6-11.2.6-4.527,0-11.437-.6l-.953,7.863-1.549,13.7Q91.143-35.027,85.9-27.581T65.527-12.986L93.645-11.2l-14.3,13.82L27.76,0,43.01-14.773,56-13.344q14.416-9.174,17.871-37.529L75.178-62.43l10.008-90.309q-54.209,10.246-54.209,40.865A45.328,45.328,0,0,0,36.1-90.07L16.918-73.152a70.334,70.334,0,0,1-2.5-18.586q0-32.287,27.521-52.779t70.889-20.492q58.855,0,58.855,37.41Q171.682-100.316,136.654-80.539Zm-32.168-73.033-7.625,69.1a109.209,109.209,0,0,0,17.395,1.549,92.18,92.18,0,0,0,16.084-1.549q21.326-15.25,21.326-36.934Q151.666-153.572,104.486-153.572ZM280.1-37.887q2.979,2.025,2.979,4.766,0,3.693-7.625,12.629Q255.08,3.1,235.184,3.1a24.707,24.707,0,0,1-20.016-9.65Q207.3-16.2,207.3-31.215q0-27.164,20.552-54.983t40.687-27.819q14.535,0,14.535,15.607,0,17.514-16.978,34.193T224.7-40.984q2.383,28.713,22.637,28.713Q267.352-12.271,280.1-37.887ZM225.176-55.52a19.529,19.529,0,0,0,6.314,1.191,39.634,39.634,0,0,0,25.854-9.055q11.08-9.055,11.08-21.207,0-13.939-14.178-13.939-10.246,0-18.526,12.212T225.176-55.52ZM310.48,5q-5.123-11.2-13.939-16.918l17.633-16.8q7.744,5.838,13.82,16.8Zm9.531-85.3q-5.361-11.318-14.059-16.8l17.752-16.918q7.744,6.076,13.7,16.918ZM441.773-4.17,424.141,3.1,424.5-.238l.953-8.816.834-8.34,5.957-53.494.834-6.076q.477-4.766.477-9.293,0-11.557-7.029-11.557-10.961,0-25.556,22.4T384.109-32.764l-3.1,28.594L363.26,3.1l.357-3.336.953-8.816.953-8.34L371.6-72.676l.715-6.314a111.2,111.2,0,0,0,.834-11.914q0-7.625-3.812-7.625-8.936,0-19.3,20.254-2.74-2.264-2.74-3.932,0-7.148,13.046-19.479t20.671-12.331q10.246,0,10.246,13.105a88.926,88.926,0,0,1-.6,8.936l-.953,9.65-.953,8.1-.953,8.459,3.336-5.242q26.687-43.01,49.682-43.01,11.08,0,11.08,15.965,0,2.74-.953,11.557l-1.191,10.961-1.668,14.893q11.08-22.994,26.271-38.185t27.1-15.19q11.795,0,11.795,15.25a111.214,111.214,0,0,1-1.311,15.607l-6.314,44.2a155.641,155.641,0,0,0-2.025,21.207q0,6.314,3.455,6.314,4.051,0,10.187-6.791A55.47,55.47,0,0,0,527.078-33.6q3.217,2.145,3.217,3.932,0,7.506-13.284,20.135T495.863,3.1q-10.127,0-10.127-13.582,0-8.578,2.621-26.568l4.17-28.713q.238-1.549.834-6.791.238-2.145.834-7.268a73.391,73.391,0,0,0,.6-7.863q0-10.127-6.672-10.127-11.2,0-26.032,22.4t-17.1,42.652ZM615.361-47.3Q601.9-25.139,585.755-11.021T557.7,3.1q-16.322,0-16.322-26.33,0-36.219,23.769-62.728t56.294-26.509q12.391,0,21.088,3.1-.6,2.145-.715,2.621l-1.43,6.314q-1.43,6.553-1.549,7.625l-7.625,52.66-1.072,7.625a139.73,139.73,0,0,0-1.549,15.131q0,5.123,2.979,5.123,10.008,0,20.492-22.4,3.217,1.906,3.217,3.813,0,4.17-10.246,16.8Q631.088,3.1,619.174,3.1q-8.7,0-8.7-11.676a80.416,80.416,0,0,1,.834-9.889L612.5-28l1.549-10.484Zm6.791-47.3a44.414,44.414,0,0,0-21.922-6.076q-16.68,0-28,20.373T560.914-29.785q0,15.488,9.174,15.488,10.6,0,25.615-16.2a93.407,93.407,0,0,0,24.543-51.23Zm76.488,19.658A92.253,92.253,0,0,1,721.1-102.818q13.522-11.2,24.841-11.2,15.25,0,15.25,15.727,0,15.012-12.688,27.462T714.963-52.9Q737.6-12.271,748.68-12.271q7.982,0,16.8-13.939,2.74,2.025,2.74,3.932,0,5.6-10.961,15.369T739.625,3.1q-11.914.6-40.508-50.635L696.139-52.9,690.777-4.17,673.025,3.1l.357-3.336.953-8.816.953-8.34,11.676-104.367q4.051-37.053,27.283-63.145T766.313-211a49.019,49.019,0,0,1,11.438,1.311l-17.514,17.156a45.063,45.063,0,0,0-12.867-2.025q-35.385,0-41.58,55.281ZM696.5-56.473q19.182,0,32.049-8.638T741.412-86.5q0-12.867-9.055-12.867-8.34,0-18.526,12.212T696.5-56.473Zm155.24,18.586q2.978,2.025,2.979,4.766,0,3.693-7.625,12.629Q826.717,3.1,806.82,3.1A24.707,24.707,0,0,1,786.8-6.553q-7.863-9.65-7.863-24.662,0-27.164,20.552-54.983t40.687-27.819q14.535,0,14.535,15.607,0,17.514-16.978,34.193t-41.4,23.232q2.383,28.713,22.637,28.713Q838.988-12.271,851.736-37.887ZM796.813-55.52a19.529,19.529,0,0,0,6.314,1.191,39.634,39.634,0,0,0,25.854-9.055q11.08-9.055,11.08-21.207,0-13.939-14.178-13.939-10.246,0-18.526,12.212T796.813-55.52Z" transform="translate(-14.416 210.998)" fill="#fff"/></svg>