<svg xmlns="http://www.w3.org/2000/svg" width="400" height="400" viewBox="0 0 400 400"><path d="M200,3a198.47,198.47,0,0,0-39.706,4,195.9,195.9,0,0,0-70.437,29.64A197.584,197.584,0,0,0,18.48,123.32,195.986,195.986,0,0,0,7,160.294a198.95,198.95,0,0,0,0,79.411,195.9,195.9,0,0,0,29.64,70.437A197.584,197.584,0,0,0,123.32,381.52,195.986,195.986,0,0,0,160.294,393a198.95,198.95,0,0,0,79.411,0,195.9,195.9,0,0,0,70.437-29.64A197.584,197.584,0,0,0,381.52,276.68,195.986,195.986,0,0,0,393,239.706a198.95,198.95,0,0,0,0-79.411,195.9,195.9,0,0,0-29.64-70.437A197.584,197.584,0,0,0,276.68,18.48,195.986,195.986,0,0,0,239.706,7,198.47,198.47,0,0,0,200,3m0-3C310.457,0,400,89.543,400,200S310.457,400,200,400,0,310.457,0,200,89.543,0,200,0Z"/><g transform="translate(138.619 65.572)"><path d="M373.421,27.161c1.412-3.367-.864-6.169-3.541-8.65a29.994,29.994,0,0,0-14.629-6.129c-3.635-.332-7.239.176-8.65,3.543l-81.384,195.5a7.079,7.079,0,0,0-.544,3.021l.09,32.593a1.32,1.32,0,0,0,2.2.926c7.267-6.6,15.607-15.759,22.911-22.448a9.4,9.4,0,0,0,2.342-3.3Z" transform="translate(-255.122 12.287)" fill="#fff"/><path d="M317.23,75.233c4.311-2.689,6.1-7.233,6.809-12.054.79-5.4-.136-12.288-8-14.253a11.2,11.2,0,0,0-8.2,1.53A15.351,15.351,0,0,0,300.3,65.351c.532,6.409,6.575,12.284,12.937,11.354a10.3,10.3,0,0,0,4-1.472Z" transform="translate(-219.593 48.686)" fill="#fff"/><path d="M369.3,18.509a29.994,29.994,0,0,0-14.629-6.129,14.927,14.927,0,0,0-4.113.116,5.713,5.713,0,0,0-4.537,3.427L309.776,103c6.267,4.7,7.478,14.983-1.36,20.952a14.767,14.767,0,0,1-8.15,1.89c-16.467,39.556-31.812,76.417-35.021,84.123L292.07,221.2l31.214-74.515L338.74,109.4a13,13,0,0,1-3.493-7.644,15.351,15.351,0,0,1,7.544-14.9,11.152,11.152,0,0,1,6.017-1.746l24.029-57.948C374.255,23.8,371.979,21,369.3,18.509Z" transform="translate(-254.544 12.281)" fill="#4482cb"/><path d="M269.321,128c1.16,6.563,7.9,9.882,14.015,9.948a49.434,49.434,0,0,0,18.178-4.075,4.123,4.123,0,0,0,2.8-4.921,4.027,4.027,0,0,0-4.919-2.8,51,51,0,0,1-13.983,3.7,16.826,16.826,0,0,1-3.563,0,10.76,10.76,0,0,1-1.272-.3c-.254-.074-.506-.158-.754-.25q.508.23-.14-.074a4.649,4.649,0,0,1-2-1.512c.41.482-.382-.638-.452-.812.184.454-.168-.882-.2-1.046a4.035,4.035,0,0,0-4.919-2.8,4.089,4.089,0,0,0-2.8,4.921Z" transform="translate(-250.604 122.873)" fill="#211715"/><path d="M318.632,124.1c2.493,3.445,2.811,8.4-.83,11.234a36.777,36.777,0,0,1-7.077,3.8,40.965,40.965,0,0,1-7.608,2.8c-3.561.876-9.042,1.54-11.2-1.75a6.6,6.6,0,0,1-.56-4.647,11.373,11.373,0,0,1,3.725-5.317,4.033,4.033,0,0,0,0-5.655,4.083,4.083,0,0,0-5.657,0A16.5,16.5,0,0,0,283.3,138.7a13.081,13.081,0,0,0,10.126,11.446c5.643,1.44,12.022-.174,17.275-2.314,5.1-2.078,11.274-4.433,14.725-8.942a16,16,0,0,0,.118-18.812,4.117,4.117,0,0,0-5.473-1.436,4.031,4.031,0,0,0-1.434,5.471Z" transform="translate(-236.544 118.083)" fill="#211715"/><path d="M294.161,144.221c-.2-15.863-.212-31.726-.26-47.59-.016-5.145-8.014-5.155-8,0,.048,15.865.068,31.728.26,47.59C286.225,149.364,294.223,149.378,294.161,144.221Z" transform="translate(-233.895 92.727)" fill="#211715"/><path d="M279.33,123.271a52.09,52.09,0,0,0,18.982-.12,4,4,0,0,0,2.4-1.84,4.085,4.085,0,0,0,.4-3.081,4.039,4.039,0,0,0-1.838-2.4,4.665,4.665,0,0,0-3.081-.4l-.6.09q-.682.1.15-.018a3.849,3.849,0,0,1-.918.118q-1.078.13-2.158.228c-1.38.126-2.765.212-4.151.242-1.336.03-2.676,0-4-.09-.286-.022-.572-.046-.858-.074s-1.438-.34-.326-.028c-.6-.168-1.25-.212-1.858-.348a4,4,0,0,0-2.126,7.714Z" transform="translate(-243.383 115.277)" fill="#211715"/><path d="M280.851,100.175c0-3.375-.248-6.769-.354-10.144q-.132-4.315-.226-8.632a4,4,0,1,0-8,0q.086,4.315.226,8.632c.106,3.375.354,6.769.354,10.144a4,4,0,1,0,8,0Z" transform="translate(-247.519 77.365)" fill="#211715"/><path d="M289.579,165.6a32.774,32.774,0,0,0,14.3,3.533,50.722,50.722,0,0,0,13.715-1.2,13.513,13.513,0,0,0,5.2-2.252c1.814-1.5,1.584-3.6,1.6-5.715q.048-4.823.056-9.644.06-23.571-.4-47.143c-.164-7.614-.36-15.233-.8-22.837-.294-5.117-8.294-5.151-8,0,1.27,22.036,1.226,44.191,1.214,66.251q0,7.975-.09,15.947l1.982-3.453c-3.247,2-7.333,1.874-11.038,2.018a26.929,26.929,0,0,1-13.691-2.4c-4.569-2.352-8.62,4.547-4.037,6.907Z" transform="translate(-232.222 76.455)" fill="#211715"/><path d="M306.973,46.029a8.218,8.218,0,0,0,.838,2.837c.27.718.53,1.44.774,2.166a26.611,26.611,0,0,1,1.1,4.681l-.144-1.064a23.587,23.587,0,0,1,.236,3.117,4,4,0,0,0,8,0,33.683,33.683,0,0,0-2.943-12.781l.144,1.064v-.02a4,4,0,0,0-8,0Z" transform="translate(-212.833 42.009)" fill="#211715"/><path d="M294.731,32.465A75.152,75.152,0,0,0,275.323,47.9a72.569,72.569,0,0,0-12.547,22.661c-2.645,7.7-4.5,17.153-.814,24.817,3.351,6.971,12.212,13.549,20.174,11.45,4.973-1.312,2.863-9.03-2.125-7.712-2.777.732-5.629-1.4-7.6-3.173A12.375,12.375,0,0,1,268.1,88.48c-1.026-6.541,1.382-13.931,3.957-19.852a59.767,59.767,0,0,1,10.782-17.157,73.9,73.9,0,0,1,15.933-12.1c4.4-2.657.386-9.576-4.037-6.907Z" transform="translate(-259.894 31.846)" fill="#211715"/><path d="M313.911,65.791v20.1c0,.5-.014,1,0,1.492,0,.176-.03.686,0,.354s-.07.306-.07.308a6.082,6.082,0,0,1-.252.8c.282-.622-.49.674-.3.434.2-.272-.23.236-.222.226-.762.822.2-.06-.306.3a2.517,2.517,0,0,1-1.152.564c-.654.166-1.322.29-1.986.422q-2.112.426-4.237.786c-3,.51-6.021.9-9.052,1.19a4.109,4.109,0,0,0-4,4,4.027,4.027,0,0,0,4,4q4.8-.462,9.556-1.2a54.886,54.886,0,0,0,8.256-1.6A11.3,11.3,0,0,0,321.9,87.243c.092-5.185,0-10.378,0-15.563V65.791c0-5.147-8-5.155-8,0Z" transform="translate(-227.469 61.899)" fill="#211715"/><path d="M269.343,71.249c.39,6.4,0,12.833.48,19.236a4.121,4.121,0,0,0,4,4c4.589.366,9.178.748,13.777,1.02a4.023,4.023,0,0,0,4-4,4.093,4.093,0,0,0-4-4c-4.6-.272-9.2-.654-13.777-1.02l4,4c-.48-6.4-.09-12.829-.48-19.236a4,4,0,0,0-8,0Z" transform="translate(-250.448 67.219)" fill="#211715"/><path d="M322.574,64.111a28.336,28.336,0,0,1-29.892,1.364,30.518,30.518,0,0,1-14.407-24.6,31.826,31.826,0,0,1,9.8-25.617,29.708,29.708,0,0,1,25.949-6.679,27.616,27.616,0,0,1,22.292,22.607,4.031,4.031,0,0,0,4.919,2.8,4.1,4.1,0,0,0,2.8-4.921c-4.287-25.779-36.665-37.193-57.5-22.723-20.546,14.267-21.926,47.362-2.174,63.035a36.155,36.155,0,0,0,42.261,1.638c4.237-2.871.24-9.8-4.037-6.907Z" transform="translate(-249.49 -0.002)" fill="#211715"/><path d="M286.927,24.333a5,5,0,0,1-2.038,3.761,3.881,3.881,0,0,1-2.859.542,4.357,4.357,0,0,1-3.147-2.372,5.1,5.1,0,0,1,1.26-5.865,4.035,4.035,0,0,1,5.487.3,4.493,4.493,0,0,1,1.3,3.631Z" transform="translate(-241.35 19.454)" fill="#211715"/><path d="M296.532,26.293a5,5,0,0,1-2.038,3.761,3.9,3.9,0,0,1-2.861.542,4.361,4.361,0,0,1-3.147-2.372,5.1,5.1,0,0,1,1.262-5.867,4.035,4.035,0,0,1,5.485.3,4.5,4.5,0,0,1,1.3,3.633Z" transform="translate(-231.75 21.413)" fill="#211715"/><path d="M291.947,17.433a40.966,40.966,0,0,0,2,4.339,22.513,22.513,0,0,0,2.458,3.493,17.338,17.338,0,0,0,5.851,4.375,4.305,4.305,0,0,0,3.081.4,4.091,4.091,0,0,0,2.4-1.838,4.035,4.035,0,0,0,.4-3.081,3.931,3.931,0,0,0-1.838-2.4,16.661,16.661,0,0,1-3.023-1.812l.81.626a13.867,13.867,0,0,1-2.439-2.462l.626.8a23.7,23.7,0,0,1-2.823-5.1l.4.956c-.064-.15-.126-.3-.188-.45a4.4,4.4,0,0,0-1.838-2.4,4,4,0,0,0-5.471,1.434,3.857,3.857,0,0,0-.4,3.081Z" transform="translate(-228.005 12.323)" fill="#211715"/><path d="M313.846,13.308a27.064,27.064,0,0,1-6.9,2.078,24.749,24.749,0,0,1-3.411.4,8.856,8.856,0,0,1-2.64-.138l2.389,5.875c1.418-2.533,2.729-5.9.38-8.364-2.6-2.731-5.951-1.11-8.95-.282a59.018,59.018,0,0,1-19.14,1.83c-5.143-.286-5.127,7.714,0,8a69.108,69.108,0,0,0,13.019-.468c2.072-.278,4.127-.628,6.161-1.11q1.4-.334,2.781-.734c.58-.168,1.156-.348,1.73-.534.232-.074.464-.15.692-.23q.894-.266-.42,0L297.777,18.6l.234.214-1.028-1.766c-.572-1.4.278-1.122,0-.7-.23.352-.4.77-.6,1.138a4.043,4.043,0,0,0,2.39,5.875,23.971,23.971,0,0,0,9.762-.158,31.242,31.242,0,0,0,9.35-2.979c4.555-2.4.518-9.308-4.037-6.907Z" transform="translate(-248.066 11.63)" fill="#211715"/><path d="M264.723,134.2l-.032-11.582,12.4,5.2c-3.469,3.505-6.915,6.945-10.146,9.88a1.32,1.32,0,0,1-2.2-.926Z" transform="translate(-255.098 122.565)" fill="#211715"/><path d="M279.129,125.523l-11-4.6a4,4,0,0,0-4.515,5.873l.624.8a4,4,0,0,0,1.766,1.03l11,4.609a4,4,0,0,0,4.517-5.871l-.626-.81a3.984,3.984,0,0,0-1.764-1.03Z" transform="translate(-256.721 120.727)" fill="#211715"/><path d="M332.422,88.157c1.2-2.911,2.609-5.8,3.637-8.782.054-.158.148-.306.2-.466,0-.024.022-.046.028-.07l.072-.532c.094-.7.094-.71,0-.014.468.074-.384.828.06.2a10.044,10.044,0,0,0,.8-1.924l8-19.29,9.016-21.734c.7-1.694,1.446-3.373,2.108-5.083,2.2-5.657-1.75-10.872-6.119-14.119A30.594,30.594,0,0,0,332.268,10.3a11.184,11.184,0,0,0-8.958,4,19.842,19.842,0,0,0-2.216,4.525q-3.313,7.954-6.623,15.915-5.947,14.293-11.9,28.582l-16.525,39.668-.4.938a4.025,4.025,0,0,0,2.8,4.921,4.1,4.1,0,0,0,4.919-2.8l14.117-33.885Q312.72,59.6,317.947,47.035L326.8,25.759q1-2.412,2-4.819c.566-1.358.482-1.864,1.706-2.382,2.234-.946,5.521.04,7.686.718a24.056,24.056,0,0,1,7.555,3.665c1.586,1.236,3.705,3.047,2.957,5.183-.444,1.27-1.04,2.505-1.554,3.749l-8.132,19.6-8.5,20.484c-.618,1.492-1.426,3.011-1.892,4.559-.076.256-.058.386-.144.706-.384,1.452.41-.622,0-.334-.14.1-.232.582-.3.736-.768,1.658-1.4,3.4-2.1,5.081L324.7,86.025a4.025,4.025,0,0,0,2.8,4.921,4.1,4.1,0,0,0,4.919-2.8Z" transform="translate(-234.287 10.284)" fill="#211715"/><path d="M299,78.251l-9.446,22.709-6.435,15.473a9.967,9.967,0,0,0-.5,1.19c-.782,2.941.57-.562-.136.348a5.321,5.321,0,0,0-.5,1.186l-3.505,8.38q-5.225,12.5-10.414,25.019c-1.548,3.719-3.249,7.4-4.653,11.184a17.464,17.464,0,0,0-.728,6.337l.03,9.012q.022,6.6.038,13.2l.018,6.141a12.769,12.769,0,0,0,.27,3.639,5.4,5.4,0,0,0,6.555,3.487c2.572-.756,4.737-3.627,6.6-5.447,2.134-2.084,4.243-4.2,6.349-6.3,2.3-2.3,4.555-4.635,6.865-6.921,2.086-2.062,4.5-3.961,6.373-6.215,2.679-3.219,4.059-8.1,5.663-11.928q10.432-24.913,20.872-49.824,10.978-26.195,21.816-52.437L345.2,63.9a4.023,4.023,0,0,0-2.8-4.921,4.1,4.1,0,0,0-4.919,2.8c-6.477,15.623-12.927,31.258-19.464,46.857q-10.582,25.253-21.162,50.506-3.013,7.2-6.029,14.4c.656-1.57.2-.338-.052.124a10.439,10.439,0,0,1-2.364,3.085q-3.761,3.543-7.4,7.211c-2.437,2.458-4.867,4.921-7.317,7.367q-1.874,1.876-3.775,3.723c-.4.4-.8.78-1.2,1.166-.364.35-1.814,1.71-1.732,1.7h2.126l.088.034,1.434,1.436c.5.7.1,1.48.138.094.016-.584,0-1.17,0-1.754q0-1.85-.01-3.7l-.018-6.563q-.014-6.149-.04-12.3c0-3.3-.54-6.921.724-10.012,1.732-4.241,3.519-8.46,5.279-12.689l9.49-22.8,3.371-8.06a16.3,16.3,0,0,0,.758-1.814c.746-2.677-.634,1.1.326-.8,2.344-4.659,4.057-9.754,6.059-14.571l10-24.039a4.025,4.025,0,0,0-2.8-4.921,4.1,4.1,0,0,0-4.919,2.8Z" transform="translate(-257.143 58.833)" fill="#211715"/><path d="M267.311,117.481l24.907,10.434a4,4,0,0,0,4.919-2.8,4.127,4.127,0,0,0-2.8-4.919l-24.907-10.434a4,4,0,0,0-4.919,2.8,4.123,4.123,0,0,0,2.8,4.919Z" transform="translate(-255.395 109.571)" fill="#211715"/><path d="M321.221,80.635c6.081-3.933,8.812-10.958,9.01-18,.168-6.075-2.515-12.038-8.29-14.585-7.031-3.1-14.609-.376-19.34,5.431a19,19,0,0,0-2.647,20c3.789,7.942,13.471,11.8,21.268,7.153,4.419-2.629.4-9.546-4.037-6.907a5.719,5.719,0,0,1-5.811.49c.646.25-.11-.074-.264-.156-.284-.15-.564-.312-.834-.484-.218-.14-.436-.284-.642-.438.484.36-.034-.04-.1-.11-.476-.46-.942-.9-1.376-1.4-.066-.076-.426-.6-.1-.128-.226-.328-.444-.656-.644-1a6.964,6.964,0,0,1-1.042-2.705c-.056-.252-.112-.516-.146-.774.094.734.02-.16,0-.34a17.992,17.992,0,0,1,.02-2.2c.02-.256.04-.516.076-.772-.106.756.034-.06.074-.244a14.428,14.428,0,0,1,.434-1.612c.076-.23.16-.46.248-.688-.27.694.024-.042.116-.2.322-.6.664-1.156,1.02-1.732.064-.1.448-.6.036-.082.154-.2.318-.388.482-.574a17.3,17.3,0,0,1,1.346-1.364,10.265,10.265,0,0,1,2.691-1.892c.658-.338-.782.2.434-.182.27-.086.538-.172.812-.242-.1.026,1.234-.256.682-.166s.714-.056.648-.054c.484-.024.962,0,1.444.02-.858-.03-.256-.052.014.018.38.1.758.2,1.132.318.166.054.96.372.31.086a6.478,6.478,0,0,1,.658.324c.214.124.412.23.61.354,0,0,.894.644.424.272s.336.322.338.324c.152.148.29.312.442.456.5.476.064.056-.036-.086.178.25.348.5.5.766.13.218.24.446.36.668s.288.862.018.014c.138.432.288.854.4,1.3.068.27.272,1.66.156.574.054.5.1,1,.112,1.51.016.552,0,1.1-.026,1.654-.018.282-.234,1.99-.052.834a26.923,26.923,0,0,1-.9,4.029,10.613,10.613,0,0,1-4.067,5.635,4.087,4.087,0,0,0-1.418,5.455,4.043,4.043,0,0,0,5.463,1.434Z" transform="translate(-221.564 46.736)" fill="#211715"/><path d="M286.3,62.974c.464-.138.93-.266,1.4-.368.184-.04.368-.076.552-.11l.272-.046c.36-.054.362-.056,0,0l-.264.036c.176-.018.354-.034.532-.048s.348-.022.524-.028c.424-.014.852-.01,1.276.014.2.012.418.052.622.05.56,0-1.038-.2-.214-.026.352.074.7.136,1.052.228s.678.2,1,.308a2.669,2.669,0,0,0,.434.164c-.924-.116-.456-.2-.016.016.612.306,1.144.706,1.73,1.048.446.262-.758-.684-.2-.148.106.1.228.19.336.288a10.5,10.5,0,0,1,.864.848c.162.176.57.51.64.75-.118-.4-.474-.67-.232-.282.1.154.2.3.3.452.176.276.344.558.5.848.086.16.162.324.248.486.41.77-.174-.532-.052-.158a19.151,19.151,0,0,1,.6,1.982c.034.154.246.752.156.864.06-.074-.086-1.066-.058-.3,0,.22.03.44.036.662,0,.332,0,.666-.016,1,0,.186-.044.374-.046.558,0,.534.228-1.058.038-.282s-.354,1.478-.6,2.216c-.124.368-.286.22.136-.3a2.8,2.8,0,0,0-.2.434c-.176.364-.372.72-.584,1.066s-.438.616-.628.938c-.28.472.652-.74.068-.1-.178.2-.344.4-.526.6q-.372.4-.772.768c-.17.156-1.372,1.1-.506.47a11.73,11.73,0,0,1-1.056.71c-.19.108-.382.2-.578.3l-.24.114c-.4.176-.328.146.2-.086-.162.238-1.044.364-1.338.446-.518.146-1.038.248-1.562.354l-.146.024c-.45.07-.388.06.186-.024a2.478,2.478,0,0,1-.886.066,13.349,13.349,0,0,1-1.47,0c-.066,0-1.028-.094-.338-.016.65.072-.328-.072-.458-.1-.23-.052-.46-.11-.686-.178l-.268-.086q-.618-.228.176.1c-.4-.038-.86-.46-1.2-.66-.7-.412.286.436.056.036a5.916,5.916,0,0,0-.67-.7,4.021,4.021,0,0,0-5.655,0,4.1,4.1,0,0,0,0,5.657c3.565,4.121,9.8,4.617,14.769,3.319a17.468,17.468,0,0,0,10.8-8.542,16.567,16.567,0,0,0-5.759-21.726,17.669,17.669,0,0,0-14.437-1.6A4,4,0,1,0,286.272,63Z" transform="translate(-242.154 54.398)" fill="#211715"/></g></svg>