<svg xmlns="http://www.w3.org/2000/svg" width="30" height="30" viewBox="0 0 30 30"><path d="M90.267-861.362a1.936,1.936,0,0,1-1.435-.59,1.978,1.978,0,0,1-.581-1.444,1.936,1.936,0,0,1,.59-1.435,1.978,1.978,0,0,1,1.444-.581,1.936,1.936,0,0,1,1.435.59,1.978,1.978,0,0,1,.581,1.444,1.936,1.936,0,0,1-.59,1.435A1.978,1.978,0,0,1,90.267-861.362Zm9.488,0a1.936,1.936,0,0,1-1.435-.59,1.978,1.978,0,0,1-.581-1.444,1.936,1.936,0,0,1,.59-1.435,1.978,1.978,0,0,1,1.444-.581,1.936,1.936,0,0,1,1.435.59,1.978,1.978,0,0,1,.581,1.444,1.936,1.936,0,0,1-.59,1.435A1.978,1.978,0,0,1,99.754-861.362ZM95-852.25a12.3,12.3,0,0,0,9.045-3.711,12.331,12.331,0,0,0,3.705-9.057,11.975,11.975,0,0,0-.15-1.9,14.812,14.812,0,0,0-.375-1.725,10.345,10.345,0,0,1-1.622.263q-.872.075-1.828.075a16.2,16.2,0,0,1-6.883-1.5,15.537,15.537,0,0,1-5.529-4.275,15.581,15.581,0,0,1-3.656,5.306,17.081,17.081,0,0,1-5.456,3.506V-865a12.305,12.305,0,0,0,3.705,9.045A12.306,12.306,0,0,0,95-852.25ZM95-850a14.606,14.606,0,0,1-5.85-1.181,15.147,15.147,0,0,1-4.763-3.206,15.147,15.147,0,0,1-3.206-4.763A14.606,14.606,0,0,1,80-865a14.606,14.606,0,0,1,1.181-5.85,15.147,15.147,0,0,1,3.206-4.763,15.147,15.147,0,0,1,4.763-3.206A14.606,14.606,0,0,1,95-880a14.606,14.606,0,0,1,5.85,1.181,15.147,15.147,0,0,1,4.763,3.206,15.147,15.147,0,0,1,3.206,4.763A14.606,14.606,0,0,1,110-865a14.606,14.606,0,0,1-1.181,5.85,15.147,15.147,0,0,1-3.206,4.763,15.147,15.147,0,0,1-4.763,3.206A14.606,14.606,0,0,1,95-850Zm-3.45-27.263a21.434,21.434,0,0,0,6.094,5.288,13.3,13.3,0,0,0,6.131,1.425q.9,0,1.425-.038a5.563,5.563,0,0,0,1.163-.225,14.28,14.28,0,0,0-4.594-4.987A11.861,11.861,0,0,0,95-877.75a11.629,11.629,0,0,0-1.912.15A13.259,13.259,0,0,0,91.55-877.263Zm-8.963,9.338a12.185,12.185,0,0,0,4.106-3.056,13.517,13.517,0,0,0,3.281-5.756,12.07,12.07,0,0,0-4.931,3.731A15.588,15.588,0,0,0,82.588-867.925ZM91.55-877.263ZM89.975-876.737Z" transform="translate(-80 880)"/></svg>