<svg xmlns="http://www.w3.org/2000/svg" width="30" height="30" viewBox="0 0 30 30"><path d="M86-862h2.963l9.45-9.338a.763.763,0,0,0,.225-.562.763.763,0,0,0-.225-.562l-2.062-1.875a.636.636,0,0,0-.469-.187.636.636,0,0,0-.469.188L86-864.775Zm6.188,0H104v-2.25H94.438ZM80-850v-27.75a2.159,2.159,0,0,1,.675-1.575A2.159,2.159,0,0,1,82.25-880h25.5a2.159,2.159,0,0,1,1.575.675A2.159,2.159,0,0,1,110-877.75v19.5a2.159,2.159,0,0,1-.675,1.575,2.159,2.159,0,0,1-1.575.675H86Zm5.025-8.25H107.75v-19.5H82.25v22.5Zm-2.775,0v0Z" transform="translate(-80 880)"/></svg>