<svg xmlns="http://www.w3.org/2000/svg" width="100" height="100" viewBox="0 0 100 100"><g transform="translate(-1392 -1759)"><circle cx="50" cy="50" r="50" transform="translate(1392 1759)" fill="rgba(255,255,255,0)"/><path d="M50,3A47.013,47.013,0,0,0,31.706,93.308,47.013,47.013,0,0,0,68.294,6.692,46.7,46.7,0,0,0,50,3m0-3A50,50,0,1,1,0,50,50,50,0,0,1,50,0Z" transform="translate(1392 1759)"/><path d="M94.248-695.385,80-709.633,94.367-724l2.553,2.553L85.105-709.633l11.7,11.7Zm18.878.119-2.553-2.553,11.814-11.814-11.7-11.7,2.553-2.553,14.248,14.248Z" transform="translate(1338.254 2518.633)"/><path d="M1.438,37.427l-2.876-.855,11-37,2.876.855Z" transform="translate(1436.5 1790.657)"/></g></svg>