<svg xmlns="http://www.w3.org/2000/svg" width="100" height="100" viewBox="0 0 100 100"><path d="M50,0a50,50,0,1,0,50,50A50.051,50.051,0,0,0,50,0ZM82.175,82.172A45.447,45.447,0,1,1,95.524,50,45.372,45.372,0,0,1,82.175,82.172Z" fill="#4b4b4b"/><path d="M56.775,173.859H56.5A38.377,38.377,0,0,0,74.62,223.817L56.776,173.859Z" transform="translate(-43.147 -137.834)" fill="#4b4b4b"/><path d="M139.132,77.648c-3.308-4.626-2.817-14.083,3.266-15.119a38.345,38.345,0,0,0-57.409,8.435H99.032v5.07H93.371l13.105,36.683,9.193-24.574-4.328-12.109h-6.548v-5.07h23.5v5.07h-6.122l13.216,37,6.7-17.893C143.277,90.319,142.582,82.486,139.132,77.648Z" transform="translate(-67.625 -43.14)" fill="#4b4b4b"/><path d="M371.817,181.277c-.015.146-.03.293-.052.436-.928,6.228-6.7,19.89-6.7,19.89l-8.352,22.324-1.863,4.985a38.356,38.356,0,0,0,16.963-47.635Z" transform="translate(-284.585 -144.799)" fill="#4b4b4b"/><path d="M198.349,299.626l-3.153,8.426a38.445,38.445,0,0,0,24.015-.34l-11.669-32.666Z" transform="translate(-156.678 -219.877)" fill="#4b4b4b"/></svg>