<svg xmlns="http://www.w3.org/2000/svg" width="30" height="30" viewBox="0 0 30 30"><path d="M93.988-857.5h2.25v-9h-2.25ZM95-869.275a1.218,1.218,0,0,0,.882-.345,1.142,1.142,0,0,0,.356-.855,1.254,1.254,0,0,0-.356-.908A1.179,1.179,0,0,0,95-871.75a1.181,1.181,0,0,0-.882.367,1.252,1.252,0,0,0-.356.908,1.143,1.143,0,0,0,.356.855A1.216,1.216,0,0,0,95-869.275ZM95.01-850a14.519,14.519,0,0,1-5.831-1.181,15.242,15.242,0,0,1-4.772-3.225,15.233,15.233,0,0,1-3.225-4.775A14.547,14.547,0,0,1,80-865.019a14.547,14.547,0,0,1,1.181-5.837,15.009,15.009,0,0,1,3.225-4.757,15.4,15.4,0,0,1,4.775-3.206A14.547,14.547,0,0,1,95.019-880a14.547,14.547,0,0,1,5.837,1.181,15.167,15.167,0,0,1,4.757,3.206,15.148,15.148,0,0,1,3.206,4.763A14.582,14.582,0,0,1,110-865.01a14.519,14.519,0,0,1-1.181,5.831,15.32,15.32,0,0,1-3.206,4.766,15.143,15.143,0,0,1-4.762,3.225A14.508,14.508,0,0,1,95.01-850Zm.009-2.25a12.247,12.247,0,0,0,9.019-3.731,12.34,12.34,0,0,0,3.713-9.037,12.29,12.29,0,0,0-3.705-9.019A12.293,12.293,0,0,0,95-877.75a12.33,12.33,0,0,0-9.019,3.705A12.263,12.263,0,0,0,82.25-865a12.287,12.287,0,0,0,3.731,9.019A12.309,12.309,0,0,0,95.019-852.25ZM95-865Z" transform="translate(-80 880)"/></svg>