<svg xmlns="http://www.w3.org/2000/svg" width="265.311" height="94.222" viewBox="0 0 265.311 94.222">
  <g id="グループ_2999" data-name="グループ 2999" transform="translate(-107 -456)">
    <g id="logo" transform="translate(-18.311 375.832)">
      <g id="グループ_2998" data-name="グループ 2998" transform="translate(125.311 80.168)">
        <path id="パス_12699" data-name="パス 12699" d="M-4337.2,1968.759a2.722,2.722,0,0,1-.395-.029l-9.965-1.466a2.711,2.711,0,0,1-2.288-3.076,2.711,2.711,0,0,1,3.076-2.287l7.191,1.057c2.59-23.518,4-49.76,1.91-53.657a3.171,3.171,0,0,1-1.174-4c2.263-4.828,24.23-6.682,34.065-2.875,7.03,2.722,9.832,8.254,7.686,15.179-3.906,12.606-15.016,16.159-24.991,16.159a45.372,45.372,0,0,1-9.537-1.033q-.13,2.42-.31,5.135c-.946,14.263-2.561,28.349-2.576,28.489a2.711,2.711,0,0,1-1.041,1.839A2.71,2.71,0,0,1-4337.2,1968.759Zm5.828-41.551c5.569,1.3,24.271,4.38,29.1-11.2,1.3-4.194-.3-6.017-1.839-7.136-6.487-4.719-22.606-3.073-28.419-1.392C-4331.6,1910.085-4330.958,1915.447-4331.372,1927.208Z" transform="translate(4349.876 -1874.537)"/>
        <path id="パス_12700" data-name="パス 12700" d="M-4173.26,2059.7a2.718,2.718,0,0,1-.479-.043,2.71,2.71,0,0,1-1.769-1.153l-16.528-24.467a2.711,2.711,0,0,1,.729-3.764,2.711,2.711,0,0,1,3.764.729l14.968,22.158,8.106-5.815a2.711,2.711,0,0,1,3.783.622,2.71,2.71,0,0,1-.623,3.783l-10.372,7.441A2.708,2.708,0,0,1-4173.26,2059.7Z" transform="translate(4224.377 -1975.846)"/>
        <path id="パス_12701" data-name="パス 12701" d="M7.485,25.324a5.66,5.66,0,0,1-2.855-.7c-4.166-2.38-4.336-6.457-4.5-10.4-.026-.627-.053-1.274-.1-1.94C-.391,5.561,3.071.883,9.071.072,16.249-.9,19.618,8.26,19.758,8.651a2.168,2.168,0,0,1-1.66,2.866L4.745,13.9a2.188,2.188,0,0,1-.285.032q0,.052,0,.1c.158,3.8.322,5.673,2.318,6.813,1.891,1.081,8.554-3.089,9.754-4.626a2.667,2.667,0,0,1,1.511-1.247c.925-.254,2.324-.638,10.384,6.091a2.169,2.169,0,0,1-2.779,3.33,65.825,65.825,0,0,0-6.39-4.784,26.184,26.184,0,0,1-7.915,4.912A11.215,11.215,0,0,1,7.485,25.324ZM10.066,4.343a3.078,3.078,0,0,0-.413.028,5.673,5.673,0,0,0-5.192,5.18L14.495,7.757c-.974-1.6-2.506-3.414-4.429-3.414Z" transform="translate(14.282 2.045) rotate(-4.012)"/>
        <circle id="楕円形_142" data-name="楕円形 142" cx="3.795" cy="3.795" r="3.795" transform="translate(65.464 29.89)"/>
        <circle id="楕円形_143" data-name="楕円形 143" cx="3.795" cy="3.795" r="3.795" transform="translate(65.464 52.443)"/>
      </g>
      <path id="パス_12702" data-name="パス 12702" d="M-105.148-26.69a.25.25,0,0,1-.182-.078.25.25,0,0,1-.078-.182v-6.766a.245.245,0,0,1,.078-.187.259.259,0,0,1,.182-.073h2.831a3.3,3.3,0,0,1,2.129.619,2.128,2.128,0,0,1,.765,1.754,2.166,2.166,0,0,1-.344,1.239,2.194,2.194,0,0,1-.947.781l1.426,2.561a.26.26,0,0,1,.031.115.209.209,0,0,1-.068.152.209.209,0,0,1-.152.068h-1.384a.434.434,0,0,1-.426-.283l-1.187-2.29h-1.063v2.312a.245.245,0,0,1-.078.187.272.272,0,0,1-.192.073Zm2.81-4.049a1.028,1.028,0,0,0,.729-.234.848.848,0,0,0,.25-.651.893.893,0,0,0-.245-.661,1,1,0,0,0-.734-.245h-1.2v1.79Zm6.953,4.153a2.754,2.754,0,0,1-1.967-.677A2.668,2.668,0,0,1-98.1-29.23v-.364a2.665,2.665,0,0,1,.765-1.92,2.691,2.691,0,0,1,1.941-.692,2.9,2.9,0,0,1,1.494.359,2.3,2.3,0,0,1,.916.984,3.216,3.216,0,0,1,.308,1.436v.25A.258.258,0,0,1-92.75-29a.245.245,0,0,1-.187.078h-3.331v.073a1.425,1.425,0,0,0,.239.791.735.735,0,0,0,.635.3.764.764,0,0,0,.427-.108,1.455,1.455,0,0,0,.3-.265.514.514,0,0,1,.152-.141.47.47,0,0,1,.182-.026h1.291a.242.242,0,0,1,.161.057.188.188,0,0,1,.068.152,1.022,1.022,0,0,1-.307.625,2.514,2.514,0,0,1-.889.614A3.348,3.348,0,0,1-95.384-26.586Zm.874-3.361v-.022a1.268,1.268,0,0,0-.234-.807.782.782,0,0,0-.651-.3.772.772,0,0,0-.64.3,1.268,1.268,0,0,0-.234.807v.022Zm3.57-.386a.25.25,0,0,1-.182-.078.25.25,0,0,1-.078-.182v-1.26a.245.245,0,0,1,.078-.187.259.259,0,0,1,.182-.073h1.323a.262.262,0,0,1,.193.078.25.25,0,0,1,.078.182v1.26a.25.25,0,0,1-.078.182.262.262,0,0,1-.193.078Zm0,3.643a.25.25,0,0,1-.182-.078.25.25,0,0,1-.078-.182v-1.26a.245.245,0,0,1,.078-.187.258.258,0,0,1,.182-.073h1.323a.262.262,0,0,1,.193.078.25.25,0,0,1,.078.182v1.26a.25.25,0,0,1-.078.182.262.262,0,0,1-.193.078Zm3.581,0a.254.254,0,0,1-.187-.073.254.254,0,0,1-.073-.187v-4.892a.254.254,0,0,1,.073-.187.254.254,0,0,1,.187-.073h1.135a.254.254,0,0,1,.187.073.254.254,0,0,1,.073.187v.354a1.834,1.834,0,0,1,.64-.514,1.964,1.964,0,0,1,.9-.2,1.605,1.605,0,0,1,1.583.9,1.9,1.9,0,0,1,.7-.645,1.934,1.934,0,0,1,.957-.25,1.809,1.809,0,0,1,1.39.578,2.452,2.452,0,0,1,.536,1.723v2.956a.258.258,0,0,1-.073.182.245.245,0,0,1-.187.078h-1.208a.271.271,0,0,1-.193-.073A.245.245,0,0,1-81-26.95v-2.884a1.081,1.081,0,0,0-.213-.749.751.751,0,0,0-.579-.228.722.722,0,0,0-.551.234,1.066,1.066,0,0,0-.219.743v2.884a.259.259,0,0,1-.073.182.245.245,0,0,1-.187.078h-1.207a.254.254,0,0,1-.187-.073.254.254,0,0,1-.073-.187v-2.884a1.049,1.049,0,0,0-.224-.744.751.751,0,0,0-.567-.234.739.739,0,0,0-.557.234,1.032,1.032,0,0,0-.224.734v2.895a.258.258,0,0,1-.073.182.245.245,0,0,1-.187.078Zm11.419.1a2.327,2.327,0,0,1-1-.213,1.737,1.737,0,0,1-.708-.583,1.407,1.407,0,0,1-.255-.818,1.371,1.371,0,0,1,.588-1.155,3.676,3.676,0,0,1,1.619-.6l1.3-.2V-30.3a.86.86,0,0,0-.167-.583.721.721,0,0,0-.562-.187.836.836,0,0,0-.4.083,1.743,1.743,0,0,0-.323.229,1.646,1.646,0,0,1-.219.167.114.114,0,0,1-.114.083h-1.134a.233.233,0,0,1-.172-.068.188.188,0,0,1-.057-.161,1.132,1.132,0,0,1,.276-.625,2.109,2.109,0,0,1,.811-.593,3.236,3.236,0,0,1,1.349-.25,2.72,2.72,0,0,1,1.894.567,1.975,1.975,0,0,1,.614,1.525v3.164a.259.259,0,0,1-.073.182.245.245,0,0,1-.187.078h-1.207a.25.25,0,0,1-.182-.078.25.25,0,0,1-.078-.182v-.364a1.672,1.672,0,0,1-.64.526A2.176,2.176,0,0,1-75.94-26.586Zm.489-1.187a1.021,1.021,0,0,0,.775-.312,1.282,1.282,0,0,0,.3-.916v-.146l-.885.156q-.937.167-.937.656a.474.474,0,0,0,.219.412A.911.911,0,0,0-75.451-27.773Zm4.809,1.083a.25.25,0,0,1-.182-.078.25.25,0,0,1-.078-.182v-6.87a.245.245,0,0,1,.078-.187.259.259,0,0,1,.182-.073h1.207a.254.254,0,0,1,.187.073.254.254,0,0,1,.073.187v3.487l1.447-1.593.078-.073a.417.417,0,0,1,.12-.078.377.377,0,0,1,.146-.026h1.395a.22.22,0,0,1,.161.068.22.22,0,0,1,.068.161.208.208,0,0,1-.083.177l-1.874,2.019,2.134,2.592a.233.233,0,0,1,.083.156.233.233,0,0,1-.068.172.233.233,0,0,1-.172.068h-1.426a.394.394,0,0,1-.2-.042.945.945,0,0,1-.161-.135l-1.645-1.978v1.894a.259.259,0,0,1-.073.182.245.245,0,0,1-.187.078Zm8.609.1A2.754,2.754,0,0,1-64-27.263a2.671,2.671,0,0,1-.75-1.967v-.364a2.665,2.665,0,0,1,.765-1.92,2.691,2.691,0,0,1,1.941-.692,2.9,2.9,0,0,1,1.494.359,2.3,2.3,0,0,1,.916.984,3.216,3.216,0,0,1,.307,1.436v.25A.259.259,0,0,1-59.4-29a.245.245,0,0,1-.187.078h-3.331v.073a1.426,1.426,0,0,0,.239.791.735.735,0,0,0,.636.3.764.764,0,0,0,.427-.108,1.455,1.455,0,0,0,.3-.265.514.514,0,0,1,.152-.141.47.47,0,0,1,.182-.026h1.291a.242.242,0,0,1,.161.057.188.188,0,0,1,.068.152,1.022,1.022,0,0,1-.307.625,2.514,2.514,0,0,1-.889.614,3.348,3.348,0,0,1-1.376.259Zm.874-3.361v-.022a1.268,1.268,0,0,0-.234-.807.782.782,0,0,0-.651-.3.772.772,0,0,0-.64.3,1.268,1.268,0,0,0-.234.807v.022Z" transform="translate(252.9 200.504)"/>
    </g>
    <path id="パス_12704" data-name="パス 12704" d="M5.88,1.38a1.028,1.028,0,0,1-.7-.24A.871.871,0,0,1,4.89.48a.859.859,0,0,1,.24-.638.989.989,0,0,1,.69-.308A1.136,1.136,0,0,0,6.472-.63a.752.752,0,0,0,.143-.54v-2.7H5.55A4.52,4.52,0,0,1,3.93-4.1,1.483,1.483,0,0,1,3.1-4.86,3.3,3.3,0,0,1,2.85-6.255,3.252,3.252,0,0,1,3.1-7.643a1.488,1.488,0,0,1,.832-.75,4.52,4.52,0,0,1,1.62-.233H9.465a4.584,4.584,0,0,1,1.627.233,1.487,1.487,0,0,1,.84.75,3.252,3.252,0,0,1,.247,1.388,3.3,3.3,0,0,1-.247,1.395,1.482,1.482,0,0,1-.84.758,4.584,4.584,0,0,1-1.627.233H8.415v2.85A2.4,2.4,0,0,1,7.807.84,2.854,2.854,0,0,1,5.88,1.38ZM1.515-9.48a.754.754,0,0,1-.563-.24.791.791,0,0,1-.233-.57.766.766,0,0,1,.233-.562.766.766,0,0,1,.563-.233H6.54v-.75a.927.927,0,0,1,.285-.7.948.948,0,0,1,.675-.27.941.941,0,0,1,.682.27.94.94,0,0,1,.278.7v.75h4.98a.784.784,0,0,1,.577.233.766.766,0,0,1,.233.563.791.791,0,0,1-.233.57.772.772,0,0,1-.577.24Zm4.1,4.1H9.4a1.2,1.2,0,0,0,.78-.187.891.891,0,0,0,.21-.683.891.891,0,0,0-.21-.682,1.2,1.2,0,0,0-.78-.187H5.61a1.2,1.2,0,0,0-.773.188.871.871,0,0,0-.217.682.871.871,0,0,0,.217.683A1.2,1.2,0,0,0,5.61-5.385ZM2.415.435A1.074,1.074,0,0,1,1.695.6a.876.876,0,0,1-.63-.375A.913.913,0,0,1,.923-.428.785.785,0,0,1,1.3-.99q.405-.27.945-.66T3.3-2.46q.51-.42.84-.735a.813.813,0,0,1,.615-.247.815.815,0,0,1,.6.262.849.849,0,0,1,.263.6.8.8,0,0,1-.247.6q-.39.39-.893.832T3.435-.293Q2.9.12,2.415.435Zm10.08-.03q-.48-.33-1.012-.75t-1.028-.862q-.495-.443-.87-.833a.829.829,0,0,1-.233-.607A.832.832,0,0,1,9.6-3.24a.838.838,0,0,1,.615-.255.79.79,0,0,1,.6.255q.33.33.832.75t1.035.81q.533.39.923.645A.826.826,0,0,1,14-.45a.889.889,0,0,1-.158.66.851.851,0,0,1-.63.367A1.108,1.108,0,0,1,12.495.405Zm7.635.57a5.157,5.157,0,0,1-1.658-.21A1.376,1.376,0,0,1,17.64.037a3.476,3.476,0,0,1-.24-1.432v-1.59q0-.165.007-.307t.023-.278q-.225.135-.443.278t-.442.262a1.061,1.061,0,0,1-.675.15.714.714,0,0,1-.525-.36.785.785,0,0,1-.105-.638.767.767,0,0,1,.405-.472,18.788,18.788,0,0,0,1.62-.975A16.529,16.529,0,0,0,18.75-6.45H16.515a.712.712,0,0,1-.532-.225.732.732,0,0,1-.217-.525.724.724,0,0,1,.217-.533.724.724,0,0,1,.532-.217h1.98V-9.24H16.98a.712.712,0,0,1-.532-.225.732.732,0,0,1-.218-.525.749.749,0,0,1,.218-.54.712.712,0,0,1,.532-.225h1.515v-.99a.8.8,0,0,1,.24-.615.824.824,0,0,1,.585-.225.824.824,0,0,1,.585.225.8.8,0,0,1,.24.615v.99h.84a.708.708,0,0,1,.487.18.75.75,0,0,1,.248.45q.135-.24.255-.487T22.2-11.1a.785.785,0,0,1,.495-.443.833.833,0,0,1,.645.068.749.749,0,0,1,.4.465.8.8,0,0,1-.052.615q-.33.645-.7,1.26a13.758,13.758,0,0,1-.81,1.185h.765a.732.732,0,0,1,.525.217.712.712,0,0,1,.225.533.72.72,0,0,1-.225.525.72.72,0,0,1-.525.225H20.91q-.27.285-.555.563t-.585.548q.09,0,.18-.007t.18-.008a5.049,5.049,0,0,1,1.672.218,1.407,1.407,0,0,1,.833.727,3.421,3.421,0,0,1,.24,1.425v1.59a3.476,3.476,0,0,1-.24,1.432A1.376,1.376,0,0,1,21.8.765,5.217,5.217,0,0,1,20.13.975Zm4.635.42a.832.832,0,0,1-.577-.225.771.771,0,0,1-.247-.6V-9.93a3.108,3.108,0,0,1,.217-1.29,1.271,1.271,0,0,1,.8-.66,5.374,5.374,0,0,1,1.643-.195,2.909,2.909,0,0,1,2.3.682A1.722,1.722,0,0,1,28.89-9.51q-.195.405-.435.892t-.405.833a2.682,2.682,0,0,0-.225.563.473.473,0,0,0,.067.375q.113.173.368.487a4.913,4.913,0,0,1,.855,1.342,3.883,3.883,0,0,1,.3,1.523A3.147,3.147,0,0,1,28.7-1.17a2.781,2.781,0,0,1-2.017.69,1.019,1.019,0,0,1-.645-.21.813.813,0,0,1-.3-.615.919.919,0,0,1,.187-.63.923.923,0,0,1,.668-.3A1.253,1.253,0,0,0,27.5-2.61a1.938,1.938,0,0,0,.218-1.08,2.853,2.853,0,0,0-.27-1.117,5.049,5.049,0,0,0-.705-1.163,3.975,3.975,0,0,1-.465-.7.971.971,0,0,1-.082-.593,4.115,4.115,0,0,1,.262-.818q.165-.39.345-.84t.36-.855q.165-.39,0-.562a1.07,1.07,0,0,0-.735-.172,1.1,1.1,0,0,0-.683.142.836.836,0,0,0-.157.608V.57a.783.783,0,0,1-.24.6A.824.824,0,0,1,24.765,1.395ZM20.13-.435a2.682,2.682,0,0,0,.7-.067.455.455,0,0,0,.315-.27,1.754,1.754,0,0,0,.083-.623V-1.53H19.05v.135q0,.63.2.8A1.539,1.539,0,0,0,20.13-.435ZM19.05-2.88h2.175v-.105a1.063,1.063,0,0,0-.2-.787,1.52,1.52,0,0,0-.892-.173,1.483,1.483,0,0,0-.878.173,1.063,1.063,0,0,0-.2.787Zm1.1-5.07h.09q.255-.315.5-.653t.488-.682a.6.6,0,0,1-.24.045h-.84ZM41.34.48A7,7,0,0,1,38.415-.548,5,5,0,0,1,36.7-2.415a4.928,4.928,0,0,1-.562-2.28A5.442,5.442,0,0,1,36.6-6.937a5.126,5.126,0,0,1,1.35-1.807q-.9.135-1.92.307t-1.972.345q-.952.172-1.673.307a.834.834,0,0,1-.667-.165.9.9,0,0,1-.353-.585.85.85,0,0,1,.157-.668.883.883,0,0,1,.593-.352q.48-.075,1.23-.2t1.68-.278q.93-.15,1.9-.315l1.912-.322q.938-.158,1.717-.293t1.275-.225a.859.859,0,0,1,.653.15.824.824,0,0,1,.368.555.912.912,0,0,1-.112.675.754.754,0,0,1-.548.375A5.136,5.136,0,0,0,40.35-8.8a5.059,5.059,0,0,0-1.342,1.14,4.957,4.957,0,0,0-.825,1.41A4.158,4.158,0,0,0,37.9-4.785a3.01,3.01,0,0,0,.99,2.347A4.957,4.957,0,0,0,41.6-1.3a.892.892,0,0,1,.585.36.831.831,0,0,1,.165.66.847.847,0,0,1-.345.6A.831.831,0,0,1,41.34.48Zm1.9-6.135a.6.6,0,0,1-.472.135.607.607,0,0,1-.442-.255l-.42-.533q-.255-.322-.465-.562a.577.577,0,0,1-.128-.4.528.528,0,0,1,.2-.4.564.564,0,0,1,.412-.158.683.683,0,0,1,.428.173,6.878,6.878,0,0,1,.518.51q.292.315.487.57a.611.611,0,0,1,.128.48A.646.646,0,0,1,43.245-5.655Zm1.44-1.29a.6.6,0,0,1-.472.18.623.623,0,0,1-.458-.225q-.18-.21-.458-.51t-.5-.525a.553.553,0,0,1-.157-.39.55.55,0,0,1,.172-.42.578.578,0,0,1,.405-.172.66.66,0,0,1,.435.142,5.063,5.063,0,0,1,.555.458,5.755,5.755,0,0,1,.525.548A.6.6,0,0,1,44.9-7.4.685.685,0,0,1,44.685-6.945ZM50.43.135a.88.88,0,0,1-.645-.27.88.88,0,0,1-.27-.645.9.9,0,0,1,.27-.66.88.88,0,0,1,.645-.27,1.4,1.4,0,0,0,.915-.2,1.213,1.213,0,0,0,.21-.848V-6.915H47.58a.843.843,0,0,1-.63-.263.881.881,0,0,1-.255-.638.881.881,0,0,1,.255-.637.843.843,0,0,1,.63-.262h3.975v-1.62a.873.873,0,0,1,.27-.653.893.893,0,0,1,.645-.262.886.886,0,0,1,.652.262.886.886,0,0,1,.263.653v1.62h3.7a.843.843,0,0,1,.63.262.881.881,0,0,1,.255.637.881.881,0,0,1-.255.638.843.843,0,0,1-.63.263h-3.7v4.26A2.845,2.845,0,0,1,52.7-.5,3.311,3.311,0,0,1,50.43.135Zm-3.015-1.89a.893.893,0,0,1-.705.1.9.9,0,0,1-.57-.428.881.881,0,0,1-.09-.7.986.986,0,0,1,.435-.57A14.557,14.557,0,0,0,47.752-4.3a11.743,11.743,0,0,0,1.163-1.1,1.07,1.07,0,0,1,.607-.352.825.825,0,0,1,.653.142.929.929,0,0,1,.368.6.833.833,0,0,1-.158.675,8.59,8.59,0,0,1-.885.96q-.51.48-1.05.9A10.906,10.906,0,0,1,47.415-1.755ZM58.5-2.085a.861.861,0,0,1-.667.225,1.006,1.006,0,0,1-.653-.3q-.285-.3-.713-.683t-.87-.75a9.724,9.724,0,0,0-.8-.607.858.858,0,0,1-.382-.585.865.865,0,0,1,.143-.675.855.855,0,0,1,.577-.382.9.9,0,0,1,.683.142q.39.255.9.66t1.013.832a9.675,9.675,0,0,1,.847.8.835.835,0,0,1,.248.667A.888.888,0,0,1,58.5-2.085ZM62.835-4.71a.893.893,0,0,1-.653-.278A.893.893,0,0,1,61.9-5.64a.886.886,0,0,1,.278-.66.905.905,0,0,1,.653-.27H72.18a.9.9,0,0,1,.66.27.9.9,0,0,1,.27.66.905.905,0,0,1-.27.652.886.886,0,0,1-.66.278ZM87.945-.5a.849.849,0,0,1-.7.06.989.989,0,0,1-.562-.45,7.021,7.021,0,0,0-.4-.63q-.255-.36-.555-.78-.87.15-1.98.308t-2.3.3q-1.192.143-2.3.255t-1.965.173a.874.874,0,0,1-.668-.225.9.9,0,0,1-.323-.63.908.908,0,0,1,.248-.675.886.886,0,0,1,.637-.3q.24-.03.5-.045l.54-.03q.45-.66.952-1.537t.982-1.823q.48-.945.878-1.815t.652-1.5a.919.919,0,0,1,.48-.525.866.866,0,0,1,.7-.03.944.944,0,0,1,.533.488.8.8,0,0,1,.022.7q-.33.78-.825,1.793T81.4-5.347q-.585,1.057-1.185,2,1.11-.1,2.243-.217t2.092-.232q-.315-.39-.615-.735t-.555-.585a.93.93,0,0,1-.248-.66.836.836,0,0,1,.293-.63.9.9,0,0,1,.66-.24.884.884,0,0,1,.63.285q.39.39.9,1T86.662-4.08q.533.675.982,1.29a11.484,11.484,0,0,1,.69,1.035.83.83,0,0,1,.075.705A.918.918,0,0,1,87.945-.5Zm14.745-1.2q-.45-.435-1.125-1.028t-1.44-1.23q-.765-.637-1.5-1.223t-1.305-1a2.776,2.776,0,0,0-.757-.428,1.294,1.294,0,0,0-.705-.03,3.41,3.41,0,0,0-.877.367q-.42.24-.96.57t-1.042.645q-.5.315-.817.51a.917.917,0,0,1-.705.105.873.873,0,0,1-.57-.42.942.942,0,0,1-.113-.7.847.847,0,0,1,.412-.57q.315-.195.848-.51t1.11-.638q.578-.323,1-.562a6.464,6.464,0,0,1,1.567-.63,2.418,2.418,0,0,1,1.283.045,5.025,5.025,0,0,1,1.38.75q.4.285.975.728t1.222.96q.653.517,1.305,1.058t1.215,1.027q.563.488.952.863a.852.852,0,0,1,.293.645.945.945,0,0,1-.278.69.942.942,0,0,1-.675.278A.94.94,0,0,1,102.69-1.695ZM101.13-7.3a1.448,1.448,0,0,1-1.072-.45,1.468,1.468,0,0,1-.443-1.065,1.461,1.461,0,0,1,.443-1.073,1.461,1.461,0,0,1,1.072-.443,1.461,1.461,0,0,1,1.073.443,1.461,1.461,0,0,1,.442,1.073,1.468,1.468,0,0,1-.442,1.065A1.448,1.448,0,0,1,101.13-7.3Zm0-.87a.611.611,0,0,0,.458-.2.63.63,0,0,0,.188-.45.648.648,0,0,0-.187-.465.611.611,0,0,0-.458-.2.611.611,0,0,0-.457.2.648.648,0,0,0-.187.465.63.63,0,0,0,.188.45A.611.611,0,0,0,101.13-8.175Zm6.705,3.465a.893.893,0,0,1-.652-.278.893.893,0,0,1-.278-.652.886.886,0,0,1,.278-.66.905.905,0,0,1,.652-.27h9.345a.9.9,0,0,1,.66.27.9.9,0,0,1,.27.66.905.905,0,0,1-.27.652.886.886,0,0,1-.66.278Zm15.93,4.62a.95.95,0,0,1-.713-.067A.9.9,0,0,1,122.6-.7a.938.938,0,0,1,.067-.7.837.837,0,0,1,.533-.45,13.652,13.652,0,0,0,2.363-1,19.307,19.307,0,0,0,2.34-1.477,19.567,19.567,0,0,0,2.085-1.763,12.149,12.149,0,0,0,1.583-1.86.885.885,0,0,1,.585-.39.853.853,0,0,1,.69.15.846.846,0,0,1,.4.585.91.91,0,0,1-.143.69,13.533,13.533,0,0,1-1.755,2.063A21.793,21.793,0,0,1,129-2.887a22.239,22.239,0,0,1-2.625,1.665A15.576,15.576,0,0,1,123.765-.09Zm2.145-7.635q-.21-.18-.593-.45t-.787-.533a7.512,7.512,0,0,0-.705-.412.873.873,0,0,1-.435-.555.871.871,0,0,1,.09-.7.863.863,0,0,1,.57-.435.957.957,0,0,1,.7.09q.33.18.8.487t.923.623a8.257,8.257,0,0,1,.7.54.852.852,0,0,1,.293.645.95.95,0,0,1-.247.675.858.858,0,0,1-.645.285A1.015,1.015,0,0,1,125.91-7.725ZM124.32-4.95a7.14,7.14,0,0,0-.607-.412q-.4-.248-.825-.488t-.727-.375a.864.864,0,0,1-.465-.54.9.9,0,0,1,.045-.7.89.89,0,0,1,.548-.458.91.91,0,0,1,.7.053q.36.165.847.435t.953.563q.465.293.735.5a.851.851,0,0,1,.33.622.908.908,0,0,1-.225.682.851.851,0,0,1-.622.33A.938.938,0,0,1,124.32-4.95Zm7.125-3.96a.573.573,0,0,1-.458.188.6.6,0,0,1-.458-.218q-.195-.21-.473-.5t-.518-.518a.526.526,0,0,1-.165-.375.57.57,0,0,1,.165-.435.607.607,0,0,1,.405-.18.67.67,0,0,1,.435.12,5.562,5.562,0,0,1,.563.457,6.649,6.649,0,0,1,.533.533.586.586,0,0,1,.18.465A.692.692,0,0,1,131.445-8.91Zm.4-1.365q-.2-.2-.5-.472t-.555-.473a.551.551,0,0,1-.2-.375.545.545,0,0,1,.135-.435.531.531,0,0,1,.382-.218.731.731,0,0,1,.443.1,5.724,5.724,0,0,1,.592.412,6.218,6.218,0,0,1,.577.5.612.612,0,0,1,.2.45.686.686,0,0,1-.173.48.6.6,0,0,1-.443.21A.6.6,0,0,1,131.85-10.275ZM139.92,1.32a.848.848,0,0,1-.577-.217A.748.748,0,0,1,139.1.51V-3.84h-.1a1.385,1.385,0,0,0-.833.165,1.092,1.092,0,0,0-.187.78V-.42a.8.8,0,0,1-.247.608.835.835,0,0,1-.592.233.835.835,0,0,1-.592-.233.8.8,0,0,1-.248-.608V-3.09a3.624,3.624,0,0,1,.225-1.425,1.327,1.327,0,0,1,.75-.72,3.88,3.88,0,0,1,1.41-.21h.42V-6.39h-2.82a.742.742,0,0,1-.555-.233.779.779,0,0,1-.225-.562.754.754,0,0,1,.225-.555.754.754,0,0,1,.555-.225h2.82v-1.17H137.58l-.12.24q-.06.12-.12.225a1.031,1.031,0,0,1-.51.472.823.823,0,0,1-.66-.022.809.809,0,0,1-.443-.42.709.709,0,0,1,.068-.675q.3-.54.592-1.193a10.334,10.334,0,0,0,.458-1.193.753.753,0,0,1,.4-.488.883.883,0,0,1,.63-.052.8.8,0,0,1,.495.375.763.763,0,0,1,.045.615q-.03.12-.075.255l-.09.27h.84v-1.08a.748.748,0,0,1,.247-.592.848.848,0,0,1,.577-.218.84.84,0,0,1,.585.218.76.76,0,0,1,.24.592v1.08h2.1a.766.766,0,0,1,.563.232.766.766,0,0,1,.232.562.766.766,0,0,1-.232.563.766.766,0,0,1-.562.232h-2.1v1.17h2.49a.754.754,0,0,1,.555.225.754.754,0,0,1,.225.555.779.779,0,0,1-.225.563.742.742,0,0,1-.555.233h-2.49v.945h.5a3.869,3.869,0,0,1,1.417.21,1.329,1.329,0,0,1,.742.72,3.624,3.624,0,0,1,.225,1.425v1.47a1.931,1.931,0,0,1-.443,1.38,1.882,1.882,0,0,1-1.417.465A.85.85,0,0,1,141.173,0a.856.856,0,0,1-.277-.585.976.976,0,0,1,.143-.563.658.658,0,0,1,.442-.322.708.708,0,0,0,.4-.15.818.818,0,0,0,.068-.42v-.855a1.092,1.092,0,0,0-.187-.78,1.421,1.421,0,0,0-.848-.165h-.165V.51a.76.76,0,0,1-.24.592A.84.84,0,0,1,139.92,1.32Zm6.36-.09a.911.911,0,0,1-.66-.263.91.91,0,0,1-.285-.637,1.007,1.007,0,0,1,.195-.667.818.818,0,0,1,.63-.308,3.207,3.207,0,0,0,.622-.113A.384.384,0,0,0,147.045-1a1.82,1.82,0,0,0,.06-.54V-11.76a.82.82,0,0,1,.255-.638.881.881,0,0,1,.615-.233.881.881,0,0,1,.615.233.82.82,0,0,1,.255.638v10.5A3.747,3.747,0,0,1,148.6.218a1.446,1.446,0,0,1-.8.78A4.074,4.074,0,0,1,146.28,1.23ZM145.2-2.265a.848.848,0,0,1-.577-.218.748.748,0,0,1-.247-.592V-10.32a.766.766,0,0,1,.247-.607.848.848,0,0,1,.577-.217.84.84,0,0,1,.585.217.778.778,0,0,1,.24.607v7.245a.76.76,0,0,1-.24.592A.84.84,0,0,1,145.2-2.265Zm8.49,3.57a.865.865,0,0,1-.615-.24.825.825,0,0,1-.255-.63V-6.66q-.24.33-.473.63t-.458.555a.864.864,0,0,1-.615.315.878.878,0,0,1-.66-.21.765.765,0,0,1-.263-.547.814.814,0,0,1,.188-.592q.405-.5.893-1.185t.96-1.462q.473-.773.863-1.5a13.556,13.556,0,0,0,.615-1.283.812.812,0,0,1,.5-.465.878.878,0,0,1,.675.03.764.764,0,0,1,.45.465.9.9,0,0,1-.03.645q-.2.42-.42.877t-.48.938v2.925a.6.6,0,0,0,.053-.1.6.6,0,0,1,.052-.1q.375-.48.8-1.14t.825-1.4q.405-.742.742-1.448a11.969,11.969,0,0,0,.533-1.275A.884.884,0,0,1,158-12.51a.82.82,0,0,1,.652-.03.834.834,0,0,1,.51.4.79.79,0,0,1,.03.675q-.12.36-.285.743t-.36.787h4.995a.821.821,0,0,1,.592.24.784.784,0,0,1,.247.585.808.808,0,0,1-.247.592.808.808,0,0,1-.592.247h-3.36v1.62h2.88a.759.759,0,0,1,.57.232.779.779,0,0,1,.225.563.779.779,0,0,1-.225.563.759.759,0,0,1-.57.232h-2.88V-3.45h2.88a.821.821,0,0,1,.592.24.784.784,0,0,1,.247.585.808.808,0,0,1-.247.592.808.808,0,0,1-.592.247h-2.88V.375a.831.831,0,0,1-.262.645.911.911,0,0,1-.637.24.884.884,0,0,1-.63-.24A.844.844,0,0,1,158.4.375v-8.64h-.7q-.405.705-.825,1.358t-.81,1.163a.887.887,0,0,1-.592.337.9.9,0,0,1-.667-.157.685.685,0,0,1-.24-.315V.435a.825.825,0,0,1-.255.63A.865.865,0,0,1,153.69,1.3Z" transform="translate(197 490)"/>
    <path id="パス_12703" data-name="パス 12703" d="M2.967,0V-30.1H14.19a12.847,12.847,0,0,1,6.02,1.247,8.366,8.366,0,0,1,3.526,3.333A9.341,9.341,0,0,1,24.9-20.9,9.365,9.365,0,0,1,23.779-16.4a8.192,8.192,0,0,1-3.5,3.354,13.006,13.006,0,0,1-6.128,1.269H8.772V0ZM18.576,0,12.384-13.244h6.278L25.2,0Zm-9.8-16h5.074a5.167,5.167,0,0,0,3.87-1.29,4.681,4.681,0,0,0,1.247-3.4,4.5,4.5,0,0,0-1.226-3.332,5.324,5.324,0,0,0-3.891-1.226H8.772ZM39.087.516A11.71,11.71,0,0,1,33.3-.882a9.882,9.882,0,0,1-3.913-3.913,11.8,11.8,0,0,1-1.4-5.826,12.639,12.639,0,0,1,1.376-6A10.17,10.17,0,0,1,33.261-20.7a11.254,11.254,0,0,1,5.826-1.483,10.89,10.89,0,0,1,5.633,1.419,9.991,9.991,0,0,1,3.741,3.827,11.085,11.085,0,0,1,1.333,5.461v.967a7.205,7.205,0,0,1-.086,1.1H32.121v-3.526H43.946a4.6,4.6,0,0,0-1.483-3.311,4.895,4.895,0,0,0-3.376-1.2,5.658,5.658,0,0,0-2.709.667,4.658,4.658,0,0,0-1.956,2.043,7.568,7.568,0,0,0-.709,3.483v1.247a6.7,6.7,0,0,0,.667,3.074,4.819,4.819,0,0,0,1.87,2.021,5.4,5.4,0,0,0,2.795.71A4.742,4.742,0,0,0,41.688-4.9a4.31,4.31,0,0,0,1.57-1.763h5.934A9.779,9.779,0,0,1,47.171-3.01,10.143,10.143,0,0,1,43.688-.43,10.915,10.915,0,0,1,39.087.516Zm18.1-.3a3.59,3.59,0,0,1-2.623-.967,3.207,3.207,0,0,1-.989-2.386,3.207,3.207,0,0,1,.989-2.386,3.59,3.59,0,0,1,2.623-.967,3.476,3.476,0,0,1,2.537.967,3.207,3.207,0,0,1,.989,2.386,3.207,3.207,0,0,1-.989,2.386A3.476,3.476,0,0,1,57.19.215Zm0-15.738a3.59,3.59,0,0,1-2.623-.967,3.207,3.207,0,0,1-.989-2.387,3.207,3.207,0,0,1,.989-2.386,3.59,3.59,0,0,1,2.623-.968,3.476,3.476,0,0,1,2.537.968,3.207,3.207,0,0,1,.989,2.386,3.207,3.207,0,0,1-.989,2.387A3.476,3.476,0,0,1,57.19-15.523ZM65.489,0V-21.672h5.117l.473,2.881a7.572,7.572,0,0,1,2.73-2.472,8.009,8.009,0,0,1,3.892-.924,9.225,9.225,0,0,1,2.924.43,7.29,7.29,0,0,1,2.3,1.247,6.383,6.383,0,0,1,1.656,2.064A8.323,8.323,0,0,1,87.72-21.2a9.124,9.124,0,0,1,4.214-.989,9.031,9.031,0,0,1,4.73,1.139,7.149,7.149,0,0,1,2.859,3.29,12.868,12.868,0,0,1,.967,5.289V0H94.729V-11.954a6.609,6.609,0,0,0-1.01-3.956A3.612,3.612,0,0,0,90.6-17.286a4.448,4.448,0,0,0-2.451.688,4.438,4.438,0,0,0-1.656,1.978,7.507,7.507,0,0,0-.58,3.1V0H80.109V-11.954a6.5,6.5,0,0,0-1.032-3.956A3.719,3.719,0,0,0,75.9-17.286a4.268,4.268,0,0,0-2.387.688,4.489,4.489,0,0,0-1.634,1.978,7.507,7.507,0,0,0-.581,3.1V0Zm47.773.516a9.978,9.978,0,0,1-4.472-.882,5.915,5.915,0,0,1-2.6-2.365,6.568,6.568,0,0,1-.839-3.289A6.1,6.1,0,0,1,106.36-9.5a6.655,6.655,0,0,1,3.053-2.365,13.31,13.31,0,0,1,5.139-.86h5.375a7.041,7.041,0,0,0-.43-2.644,3.079,3.079,0,0,0-1.333-1.569,4.843,4.843,0,0,0-2.408-.516,5.147,5.147,0,0,0-2.773.71,3.044,3.044,0,0,0-1.4,2.171h-5.633a7.571,7.571,0,0,1,1.527-4.021,8.677,8.677,0,0,1,3.483-2.644,11.988,11.988,0,0,1,4.837-.946,12.524,12.524,0,0,1,5.289,1.032,7.766,7.766,0,0,1,3.44,2.967,8.871,8.871,0,0,1,1.2,4.773V0h-4.9l-.645-3.311a7.621,7.621,0,0,1-1.118,1.548,6.946,6.946,0,0,1-1.505,1.2,7.316,7.316,0,0,1-1.935.8A9.389,9.389,0,0,1,113.262.516Zm1.376-4.472a4.7,4.7,0,0,0,2-.408,4.727,4.727,0,0,0,1.527-1.118,5.3,5.3,0,0,0,1.01-1.634,8.013,8.013,0,0,0,.494-2v-.043H115.24a6.14,6.14,0,0,0-2.172.323,2.433,2.433,0,0,0-1.225.924,2.489,2.489,0,0,0-.387,1.376,2.437,2.437,0,0,0,.387,1.419,2.449,2.449,0,0,0,1.118.86A4.375,4.375,0,0,0,114.638-3.956ZM145.34,0,136.1-11.868l8.3-9.8h6.837L140.524-9.417v-4.6L152.564,0ZM131.15,0V-30.96h5.805V0ZM164.6.516a11.71,11.71,0,0,1-5.784-1.4,9.882,9.882,0,0,1-3.913-3.913,11.8,11.8,0,0,1-1.4-5.826,12.639,12.639,0,0,1,1.376-6,10.17,10.17,0,0,1,3.891-4.085,11.254,11.254,0,0,1,5.827-1.483,10.89,10.89,0,0,1,5.633,1.419,9.99,9.99,0,0,1,3.741,3.827,11.085,11.085,0,0,1,1.333,5.461v.967a7.206,7.206,0,0,1-.086,1.1H157.638v-3.526h11.825a4.6,4.6,0,0,0-1.484-3.311,4.895,4.895,0,0,0-3.375-1.2,5.658,5.658,0,0,0-2.709.667,4.658,4.658,0,0,0-1.956,2.043,7.568,7.568,0,0,0-.71,3.483v1.247a6.7,6.7,0,0,0,.667,3.074,4.819,4.819,0,0,0,1.87,2.021,5.4,5.4,0,0,0,2.795.71,4.742,4.742,0,0,0,2.645-.688,4.31,4.31,0,0,0,1.569-1.763h5.934a9.779,9.779,0,0,1-2.021,3.655,10.144,10.144,0,0,1-3.483,2.58A10.915,10.915,0,0,1,164.6.516Z" transform="translate(197 537)"/>
  </g>
</svg>
