<svg xmlns="http://www.w3.org/2000/svg" width="30.732" height="30" viewBox="0 0 30.732 30"><path d="M62.171-866.488q-1.72-1.537-3.274-3a34.125,34.125,0,0,1-2.723-2.852,15.929,15.929,0,0,1-1.866-2.688,5.3,5.3,0,0,1-.7-2.51,4.311,4.311,0,0,1,1.289-3.178A4.336,4.336,0,0,1,58.086-882a4.4,4.4,0,0,1,2.164.6,6.735,6.735,0,0,1,1.921,1.628,6.735,6.735,0,0,1,1.921-1.628,4.4,4.4,0,0,1,2.164-.6,4.336,4.336,0,0,1,3.187,1.285,4.311,4.311,0,0,1,1.288,3.178,5.3,5.3,0,0,1-.7,2.51,15.929,15.929,0,0,1-1.866,2.688,34.215,34.215,0,0,1-2.73,2.858Q63.877-868.012,62.171-866.488Zm0-3.037q2.415-2.195,4.39-4.354t1.976-3.659a2.209,2.209,0,0,0-.635-1.636,2.227,2.227,0,0,0-1.642-.632,2.765,2.765,0,0,0-1.217.293,3.669,3.669,0,0,0-1.226,1.1L62.171-876.4l-1.646-2.012a3.669,3.669,0,0,0-1.226-1.1,2.765,2.765,0,0,0-1.217-.293,2.227,2.227,0,0,0-1.642.632,2.209,2.209,0,0,0-.635,1.636q0,1.5,1.976,3.659T62.171-869.524ZM59.244-852l-11.378-3.256v2.085H40v-14.415H51.3l9.329,3.512a3.854,3.854,0,0,1,1.665,1.189,3.628,3.628,0,0,1,.677,2.36h4.171a3.357,3.357,0,0,1,2.561,1.1,4.17,4.17,0,0,1,1.024,2.963v.951ZM42.2-855.366h3.439V-865.39H42.2Zm16.9,1.1,9.366-2.854a1.916,1.916,0,0,0-.549-.951,1.215,1.215,0,0,0-.768-.256H59.573a13.121,13.121,0,0,1-2.03-.146,13.007,13.007,0,0,1-1.774-.4l-2.963-.915.8-2.122,2.671.878a10.1,10.1,0,0,0,1.738.4,22.046,22.046,0,0,0,2.616.11,2.341,2.341,0,0,0-.165-.86,1.062,1.062,0,0,0-.567-.6l-8.963-3.4H47.866v7.829ZM45.634-860.378ZM60.634-860.524ZM45.634-860.378ZM47.866-860.378ZM62.171-874.683Z" transform="translate(-40 882)"/></svg>